<svg width="22" height="26" viewBox="0 0 22 26" fill="none" xmlns="http://www.w3.org/2000/svg">
<path d="M1.68255 21.2567C1.68255 21.7735 2.10009 22.191 2.61691 22.191H19.377C19.8938 22.191 20.3113 21.7735 20.3113 21.2567V14.4534C20.3113 9.30856 16.1418 5.13898 10.9969 5.13898C5.85213 5.13898 1.68255 9.30856 1.68255 14.4534V21.2567ZM3.78486 14.4534C3.78486 10.4707 7.01424 7.24129 10.9969 7.24129C14.9797 7.24129 18.209 10.4707 18.209 14.4534V20.0887H7.84348V15.0957C7.84348 14.9352 7.71209 14.8038 7.5515 14.8038H6.26675C6.10616 14.8038 5.97476 14.9352 5.97476 15.0957V20.0887H3.78486V14.4534ZM2.3804 7.0807L3.53667 5.92442C3.62718 5.83391 3.62718 5.685 3.53667 5.59448L1.55407 3.61188C1.51017 3.56841 1.45088 3.54403 1.3891 3.54403C1.32732 3.54403 1.26803 3.56841 1.22413 3.61188L0.067858 4.76815C0.0243863 4.81206 0 4.87134 0 4.93313C0 4.99491 0.0243863 5.0542 0.067858 5.0981L2.05045 7.0807C2.14097 7.17121 2.28696 7.17121 2.3804 7.0807ZM21.9319 4.76815L20.7756 3.61188C20.7317 3.56841 20.6724 3.54403 20.6106 3.54403C20.5488 3.54403 20.4896 3.56841 20.4457 3.61188L18.4631 5.59448C18.4196 5.63838 18.3952 5.69767 18.3952 5.75945C18.3952 5.82124 18.4196 5.88052 18.4631 5.92442L19.6193 7.0807C19.7098 7.17121 19.8588 7.17121 19.9493 7.0807L21.9319 5.0981C22.0224 5.00466 22.0224 4.85867 21.9319 4.76815ZM20.3405 24.0598H1.65335C1.13653 24.0598 0.71899 24.4773 0.71899 24.9941V25.6949C0.71899 25.8234 0.824105 25.9285 0.95258 25.9285H21.0413C21.1698 25.9285 21.2749 25.8234 21.2749 25.6949V24.9941C21.2749 24.4773 20.8574 24.0598 20.3405 24.0598ZM10.1794 3.27026H11.8145C11.943 3.27026 12.0481 3.16514 12.0481 3.03667V0.23359C12.0481 0.105115 11.943 0 11.8145 0H10.1794C10.0509 0 9.94579 0.105115 9.94579 0.23359V3.03667C9.94579 3.16514 10.0509 3.27026 10.1794 3.27026Z" fill="white"/>
</svg>
