<svg width="21" height="21" viewBox="0 0 21 21" fill="none" xmlns="http://www.w3.org/2000/svg">
<path fill-rule="evenodd" clip-rule="evenodd" d="M5.9434 0.990566C5.9434 0.727852 5.83903 0.475897 5.65327 0.29013C5.4675 0.104363 5.21555 0 4.95283 0C4.69012 0 4.43816 0.104363 4.2524 0.29013C4.06663 0.475897 3.96227 0.727852 3.96227 0.990566V2.77359H2.57547C1.89241 2.77359 1.23733 3.04493 0.754338 3.52792C0.271344 4.01092 0 4.666 0 5.34906V18.4245C0 19.1076 0.271344 19.7627 0.754338 20.2457C1.23733 20.7287 1.89241 21 2.57547 21H18.4245C19.1076 21 19.7627 20.7287 20.2457 20.2457C20.7287 19.7627 21 19.1076 21 18.4245V5.34906C21 4.666 20.7287 4.01092 20.2457 3.52792C19.7627 3.04493 19.1076 2.77359 18.4245 2.77359H17.0377V0.990566C17.0377 0.727852 16.9334 0.475897 16.7476 0.29013C16.5618 0.104363 16.3099 0 16.0472 0C15.7845 0 15.5325 0.104363 15.3467 0.29013C15.161 0.475897 15.0566 0.727852 15.0566 0.990566V2.77359H5.9434V0.990566ZM15.0566 5.74528V4.75472H5.9434V5.74528C5.9434 6.008 5.83903 6.25995 5.65327 6.44572C5.4675 6.63149 5.21555 6.73585 4.95283 6.73585C4.69012 6.73585 4.43816 6.63149 4.2524 6.44572C4.06663 6.25995 3.96227 6.008 3.96227 5.74528V4.75472H2.57547C2.41784 4.75472 2.26667 4.81734 2.15521 4.9288C2.04375 5.04026 1.98113 5.19143 1.98113 5.34906V18.4245C1.98113 18.5822 2.04375 18.7333 2.15521 18.8448C2.26667 18.9563 2.41784 19.0189 2.57547 19.0189H18.4245C18.5822 19.0189 18.7333 18.9563 18.8448 18.8448C18.9563 18.7333 19.0189 18.5822 19.0189 18.4245V5.34906C19.0189 5.19143 18.9563 5.04026 18.8448 4.9288C18.7333 4.81734 18.5822 4.75472 18.4245 4.75472H17.0377V5.74528C17.0377 6.008 16.9334 6.25995 16.7476 6.44572C16.5618 6.63149 16.3099 6.73585 16.0472 6.73585C15.7845 6.73585 15.5325 6.63149 15.3467 6.44572C15.161 6.25995 15.0566 6.008 15.0566 5.74528ZM8.64883 8.50144C8.64883 8.18287 8.90717 7.92453 9.22574 7.92453H11.7743C12.0928 7.92453 12.3512 8.18287 12.3512 8.50144V10.63H14.4797C14.7983 10.63 15.0566 10.8883 15.0566 11.2069V13.7554C15.0566 13.9084 14.9958 14.0551 14.8876 14.1633C14.7794 14.2715 14.6327 14.3323 14.4797 14.3323H12.3512V16.4608C12.3512 16.5366 12.3363 16.6116 12.3073 16.6816C12.2783 16.7516 12.2358 16.8152 12.1822 16.8688C12.1286 16.9223 12.065 16.9648 11.995 16.9938C11.925 17.0228 11.85 17.0377 11.7743 17.0377H9.22574C9.14998 17.0377 9.07496 17.0228 9.00497 16.9938C8.93497 16.9648 8.87137 16.9223 8.8178 16.8688C8.76423 16.8152 8.72174 16.7516 8.69275 16.6816C8.66375 16.6116 8.64883 16.5366 8.64883 16.4608V14.3323H6.5203C6.3673 14.3323 6.22056 14.2715 6.11237 14.1633C6.00418 14.0551 5.9434 13.9084 5.9434 13.7554V11.2069C5.9434 10.8883 6.20174 10.63 6.5203 10.63H8.64883V8.50144Z" fill="white"/>
</svg>
